<svg id="Rotation" xmlns="http://www.w3.org/2000/svg" width="256" height="256" viewBox="0 0 256 256">
  <defs>
    <style>
      .cls-1, .cls-2, .cls-3 {
        fill-rule: evenodd;
      }

      .cls-2 {
        fill: none;
      }

      .cls-2, .cls-3 {
        stroke: #000;
        stroke-width: 10px;
      }
    </style>
  </defs>
  <g id="_270_" data-name="270°">
    <path id="R_270_4_SVG" data-name="R 270 4 SVG" class="cls-1" d="M174.855,145.555h-41.83V141.3q0-7.226,1.128-10.556a16.149,16.149,0,0,1,4.17-6.3q3.042-2.976,14.729-11.052l21.8-15.161V73.151L155.307,85.832q-11.686,7.51-16.267,11.937A48.8,48.8,0,0,0,130.633,109q-1.912-13.672-9.261-20.545t-18.626-6.872a28.118,28.118,0,0,0-15.788,4.534,23.707,23.707,0,0,0-9.6,12.079q-2.7,7.545-2.7,24.193v44.137h100.2v-20.97Zm-83.249,0V129.19q0-12.753.342-15.3a13,13,0,0,1,3.93-7.9,11.752,11.752,0,0,1,8.168-2.8,12.709,12.709,0,0,1,7.519,2.126,11.264,11.264,0,0,1,4.237,5.88q1.23,3.756,1.231,18.845v15.515H91.606Z"/>
    <path id="circle_270" data-name="circle 270" class="cls-2" d="M128.209,25.408a99.354,99.354,0,1,1-99.354,99.354"/>
    <path id="Triangle_1_copy" data-name="Triangle 1 copy" class="cls-3" d="M30.578,101.625L47.531,122.75H13.625Z"/>
  </g>
</svg>
